<svg width="1191" height="1178" viewBox="0 0 1191 1178" fill="none" xmlns="http://www.w3.org/2000/svg">
<ellipse cx="159.468" cy="113.171" rx="159.468" ry="113.171" transform="matrix(1 0 0 -1 417 226.342)" fill="black"/>
<ellipse cx="159.468" cy="113.171" rx="159.468" ry="113.171" transform="matrix(0 1 1 0 924.238 414.643)" fill="black"/>
<ellipse cx="159.468" cy="113.171" rx="159.468" ry="113.171" transform="matrix(-1 0 0 1 735.937 921.88)" fill="black"/>
<ellipse cx="159.468" cy="113.171" rx="159.468" ry="113.171" transform="matrix(0 -1 -1 0 228.7 733.579)" fill="black"/>
<ellipse cx="575.757" cy="574.351" rx="128.757" ry="127.351" fill="black"/>
<ellipse cx="308.178" cy="294.178" rx="128.481" ry="88.1456" transform="rotate(-45 308.178 294.178)" fill="black"/>
<ellipse cx="841.281" cy="304.178" rx="128.481" ry="88.1456" transform="rotate(45 841.281 304.178)" fill="black"/>
<ellipse cx="841.281" cy="827.281" rx="128.481" ry="88.1456" transform="rotate(135 841.281 827.281)" fill="black"/>
<ellipse cx="308.178" cy="837.281" rx="128.481" ry="88.1456" transform="rotate(-135 308.178 837.281)" fill="black"/>
</svg>
