<svg width="581" height="588" viewBox="0 0 581 588" fill="none" xmlns="http://www.w3.org/2000/svg">
<path d="M289.651 0.000144398C290.685 0.00175573 291.72 0.00336706 292.786 0.00502721C302.92 0.163315 312.431 1.82221 322.213 4.37514C323.886 4.79087 323.886 4.79087 325.592 5.21499C342.802 10.1877 359.366 22.7827 368.213 38.3751C372.657 47.6422 373.869 58.7424 371.377 68.7228C365.114 86.3569 351.935 98.2236 335.36 106.276C329.437 109 323.419 111.372 317.213 113.375C312.796 141.836 316.241 172.432 331.213 197.375C331.704 198.272 332.195 199.17 332.701 200.094C348.7 228.575 376.818 251.739 408.287 260.985C412.9 262.246 417.546 263.334 422.213 264.375C422.838 264.555 423.463 264.736 424.106 264.921C431.184 266.831 438.337 266.643 445.607 266.581C447.84 266.563 450.073 266.56 452.307 266.561C458.706 266.539 464.892 266.398 471.213 265.375C471.299 264.781 471.386 264.187 471.475 263.574C474.664 244.759 486.829 226.551 502.213 215.375C512.471 209.401 521.86 207.74 533.705 210.059C540.762 212.06 546.432 214.892 552.213 219.375C553.224 220.097 554.234 220.819 555.276 221.563C569.831 234.314 578.705 257.519 580.392 276.375C580.681 281.125 580.694 285.868 580.651 290.625C580.646 291.702 580.646 291.702 580.641 292.802C580.479 318.814 573.615 343.691 554.971 362.742C545.504 371.78 535.1 376.008 521.987 375.775C509.954 375.259 499.152 369.378 490.951 360.551C484.778 352.824 479.981 344.333 475.713 335.438C475.375 334.74 475.037 334.043 474.688 333.325C472.673 328.969 471.662 325.157 471.213 320.375C470.141 320.231 469.068 320.086 467.963 319.938C464.213 319.375 464.213 319.375 462.442 318.85C459.242 318.168 456.064 318.212 452.807 318.207C452.086 318.204 451.366 318.201 450.623 318.197C449.097 318.192 447.571 318.19 446.044 318.19C443.749 318.188 441.454 318.17 439.158 318.151C410.358 318.034 383.072 328.635 361.213 347.375C360.446 348.027 360.446 348.027 359.664 348.691C337.047 368.06 323.792 392.571 317.213 421.375C317.031 422.137 316.85 422.899 316.662 423.684C315.76 429.087 316.027 434.615 316.028 440.082C316.026 442.275 316.008 444.466 315.988 446.658C315.968 450.902 316.054 455.135 316.213 459.375C316.245 460.386 316.245 460.386 316.277 461.417C316.399 468.891 316.399 468.891 319.949 475.085C322.281 476.302 324.493 477.045 327.026 477.75C328.764 478.357 330.5 478.971 332.233 479.594C333.51 480.033 333.51 480.033 334.813 480.481C351.212 486.593 362.617 499.45 370.369 514.641C373.517 522.277 373.807 533.854 371.088 541.688C370.493 542.932 369.865 544.16 369.213 545.375C368.834 546.21 368.455 547.046 368.065 547.906C359.448 565.638 342.757 574.42 325.213 581.375C324.441 581.726 323.669 582.076 322.873 582.438C297.126 591.511 266.069 586.907 241.901 575.563C236.068 572.502 231.123 568.745 226.213 564.375C225.503 563.759 224.793 563.143 224.061 562.508C214.465 553.63 209.348 543.099 208.838 530.188C209.117 516.015 214.948 505.722 224.526 495.688C236.232 484.492 250.947 477.419 266.213 472.375C270.701 435.81 264.402 398.723 241.381 369.039C240.666 368.16 239.95 367.281 239.213 366.375C238.584 365.574 238.584 365.574 237.942 364.757C220.625 342.778 196.987 329.095 170.213 321.375C168.539 320.892 168.539 320.892 166.83 320.399C157.284 318.154 147.722 318.088 137.963 318.063C137.276 318.059 136.589 318.055 135.881 318.052C127.155 318.027 118.778 318.611 110.213 320.375C109.999 321.199 109.784 322.022 109.563 322.871C106.009 336.146 99.4538 349.139 90.2131 359.375C89.673 359.995 89.1329 360.615 88.5764 361.254C84.1026 366.082 79.0121 369.318 73.2131 372.375C72.312 372.889 72.312 372.889 71.3928 373.414C63.6399 377.134 51.5454 376.702 43.3381 374.313C26.1714 367.135 15.6275 353.076 8.38839 336.485C3.65515 324.84 0.67221 312.933 0.213099 300.375C0.18055 299.599 0.148002 298.822 0.114466 298.023C-0.851486 272.118 4.12497 246.229 21.5881 226.063C30.3647 216.827 40.0381 209.395 53.2536 208.885C64.7018 208.83 73.1323 211.404 82.2131 218.375C82.8924 218.889 83.5718 219.404 84.2717 219.934C97.6939 230.844 105.519 248.068 110.213 264.375C128 268.057 148.729 268.622 166.213 263.375C166.955 263.155 167.697 262.934 168.462 262.707C191.177 255.798 209.962 244.658 227.213 228.375C227.889 227.753 228.564 227.13 229.26 226.488C239.906 216.332 247.486 204.345 254.213 191.375C254.792 190.272 255.371 189.168 255.967 188.031C260.08 179.702 262.187 171.393 264.213 162.375C264.575 161.19 264.938 160.006 265.311 158.785C266.845 152.682 266.461 146.373 266.401 140.125C266.4 138.879 266.399 137.632 266.399 136.348C266.362 128.644 265.985 121.04 265.213 113.375C264.058 113.21 262.903 113.045 261.713 112.875C245.141 109.169 226.802 97.3073 217.209 83.4884C210.392 72.3737 207.308 61.7108 209.717 48.6408C213.995 32.8989 225.052 21.3845 238.807 13.2736C254.496 4.52915 271.681 -0.0295766 289.651 0.000144398Z" fill="#41423F"/>
</svg>
